# xmcd CD database file
#
# Track frame offsets:
#	150
#	1627
#	9882
#	25342
#	38842
#	50342
#	59617
#	77567
#	91712
#	100677
#	116102
#	129135
#	144247
#	157270
#	176177
#	177590
#
# Disc length: 2479 seconds
#
# Revision: 1
# Processed by: cddbd v1.5.2PL0 Copyright (c) Steve Scherf et al.
# Submitted via: CDex 1.70beta2
#
DISCID=c009ad10
DTITLE=Das Spardosen Terzett - Bitteschön
DYEAR=1900
DGENRE=Jazz
TTITLE0=Echoes
TTITLE1=Mucho, Mucho, Mucho
TTITLE2=Somethin' Stupid
TTITLE3=I Feel Fine
TTITLE4=Blue Velvet
TTITLE5=Dancers In Love
TTITLE6=Birdland
TTITLE7=Suede Shoes
TTITLE8=I'm Old Fashionend
TTITLE9=Perfidia
TTITLE10=Satin Doll
TTITLE11=I Feel Good
TTITLE12=Carioca
TTITLE13=Wonderful World
TTITLE14=Echoes
TTITLE15=Mucho, Mucho, Mucho
EXTD=
EXTT0=
EXTT1=
EXTT2=
EXTT3=
EXTT4=
EXTT5=
EXTT6=
EXTT7=
EXTT8=
EXTT9=
EXTT10=
EXTT11=
EXTT12=
EXTT13=
EXTT14=
EXTT15=
PLAYORDER=
